<?xml version="1.0" encoding="UTF-8" standalone="no"?>
<svg width="103px" height="103px" viewBox="0 0 103 103" version="1.1" xmlns="http://www.w3.org/2000/svg" xmlns:xlink="http://www.w3.org/1999/xlink">
    <!-- Generator: Sketch 3.7.2 (28276) - http://www.bohemiancoding.com/sketch -->
    <title>chat_tab</title>
    <desc>Created with Sketch.</desc>
    <defs></defs>
    <g id="Page-1" stroke="none" stroke-width="1" fill="none" fill-rule="evenodd">
        <g id="chat_tab" fill="#FFB500">
            <g transform="translate(14.800000, 20.200000)">
                <path d="M16.1767544,-0.468747839 C17.6089125,-1.2951729 19.9417725,-1.28889861 21.3630575,-0.468747839 L29.3818772,4.15850228 C30.8140352,4.98492734 31.9750287,7.00732556 31.9750287,8.6476271 L31.9750287,17.9021273 C31.9750287,19.5549775 30.8031622,21.5711014 29.3818772,22.3912522 L21.3630575,27.0185023 C19.9308995,27.8449273 17.5980394,27.8386531 16.1767544,27.0185023 L8.15793473,22.3912522 C6.72577667,21.5648271 5.56478318,19.5424289 5.56478318,17.9021273 L5.56478318,8.6476271 C5.56478318,6.99477698 6.73664973,4.97865305 8.15793473,4.15850228 L16.1767544,-0.468747839 Z" id="Polygon-1" transform="translate(18.769906, 13.274877) rotate(-90.000000) translate(-18.769906, -13.274877) "></path>
                <path d="M15.5667739,28.1821342 C17.004444,27.3525284 19.3251206,27.3466152 20.773038,28.1821342 L31.9951944,34.6578658 C33.4328645,35.4874716 34.5983264,37.4932304 34.5983264,39.1642684 L34.5983264,52.1157316 C34.5983264,53.7749432 33.4431118,55.7866152 31.9951944,56.6221342 L20.773038,63.0978658 C19.3353679,63.9274716 17.0146913,63.9333848 15.5667739,63.0978658 L4.34461755,56.6221342 C2.90694741,55.7925284 1.74148549,53.7867696 1.74148549,52.1157316 L1.74148549,39.1642684 C1.74148549,37.5050568 2.89670012,35.4933848 4.34461755,34.6578658 L15.5667739,28.1821342 Z" id="Polygon-1-Copy" transform="translate(18.169906, 45.640000) rotate(-90.000000) translate(-18.169906, -45.640000) "></path>
                <path d="M31.0476315,29.6782083 C30.2195949,28.2432575 30.2213142,25.913763 31.0476315,24.4817917 L39.2090456,10.3384222 C40.0370822,8.90347138 42.0542899,7.74021388 43.7069245,7.74021388 L60.0297527,7.74021388 C61.6858259,7.74021388 63.7013142,8.90645093 64.5276315,10.3384222 L72.6890456,24.4817917 C73.5170822,25.9167425 73.5153629,28.246237 72.6890456,29.6782083 L64.5276315,43.8215778 C63.6995949,45.2565286 61.6823872,46.4197861 60.0297527,46.4197861 L43.7069245,46.4197861 C42.0508512,46.4197861 40.0353629,45.2535491 39.2090456,43.8215778 L31.0476315,29.6782083 Z M40.1021944,31.16 C42.3566934,31.16 44.184326,29.3333218 44.184326,27.08 C44.184326,24.8266782 42.3566934,23 40.1021944,23 C37.8476953,23 36.0200627,24.8266782 36.0200627,27.08 C36.0200627,29.3333218 37.8476953,31.16 40.1021944,31.16 Z M51.8683386,31.16 C54.1228376,31.16 55.9504702,29.3333218 55.9504702,27.08 C55.9504702,24.8266782 54.1228376,23 51.8683386,23 C49.6138395,23 47.7862069,24.8266782 47.7862069,27.08 C47.7862069,29.3333218 49.6138395,31.16 51.8683386,31.16 Z M63.6344828,31.16 C65.8889818,31.16 67.7166144,29.3333218 67.7166144,27.08 C67.7166144,24.8266782 65.8889818,23 63.6344828,23 C61.3799837,23 59.5523511,24.8266782 59.5523511,27.08 C59.5523511,29.3333218 61.3799837,31.16 63.6344828,31.16 Z" id="Polygon-1-Copy-2"></path>
            </g>
        </g>
    </g>
</svg>