<?xml version="1.0" encoding="UTF-8" standalone="no"?>
<svg width="103px" height="103px" viewBox="0 0 103 103" version="1.1" xmlns="http://www.w3.org/2000/svg" xmlns:xlink="http://www.w3.org/1999/xlink">
    <!-- Generator: Sketch 3.7.2 (28276) - http://www.bohemiancoding.com/sketch -->
    <title>contact_tab</title>
    <desc>Created with Sketch.</desc>
    <defs></defs>
    <g id="Page-1" stroke="none" stroke-width="1" fill="none" fill-rule="evenodd">
        <g id="contact_tab" fill="#FFC22C">
            <g transform="translate(25.200000, 22.000000)">
                <path d="M4.26325641e-14,26.6310077 C4.26325641e-14,15.4515019 9.06273185,6.3887218 20.2379133,6.3887218 L31.9620867,6.3887218 C43.1391776,6.3887218 52.2,15.4534117 52.2,26.6310077 L52.2,38.3577141 C52.2,49.5372199 43.1372681,58.6 31.9620867,58.6 L20.2379133,58.6 C9.06082243,58.6 4.26325641e-14,49.5353101 4.26325641e-14,38.3577141 L4.26325641e-14,26.6310077 Z M25.9898734,39.6541353 C30.0040747,39.6541353 33.2582278,36.3992791 33.2582278,32.3842105 C33.2582278,28.3691419 26.7000277,20.9430495 26.7000277,20.9430495 C26.3078203,20.481172 25.6681829,20.4806475 25.2797191,20.9430495 C25.2797191,20.9430495 18.721519,28.3691419 18.721519,32.3842105 C18.721519,36.3992791 21.9756721,39.6541353 25.9898734,39.6541353 Z" id="Rectangle-24"></path>
                <rect id="Rectangle-24-Copy" x="3.96455696" y="0" width="44.4911392" height="9.25263158" rx="20.24"></rect>
            </g>
        </g>
    </g>
</svg>