<?xml version="1.0" encoding="UTF-8" standalone="no"?>
<svg width="120px" height="96px" viewBox="0 0 120 96" version="1.1" xmlns="http://www.w3.org/2000/svg" xmlns:xlink="http://www.w3.org/1999/xlink" style="background: #FFFFFF;">
    <!-- Generator: Sketch 3.7.2 (28276) - http://www.bohemiancoding.com/sketch -->
    <title>corner_honey</title>
    <desc>Created with Sketch.</desc>
    <defs></defs>
    <g id="Page-1" stroke="none" stroke-width="1" fill="none" fill-rule="evenodd">
        <g id="corner_honey" fill="#FFE7A2">
            <path d="M104,83 L96,83 L96,86.0604193 C96,88.2750222 94.2046438,90.0703125 92,90.0703125 C89.790861,90.0703125 88,88.27626 88,86.0604193 L88,83 L80,83 L80,86.0604193 C80,88.2750222 78.2046438,90.0703125 76,90.0703125 C73.790861,90.0703125 72,88.27626 72,86.0604193 L72,83 L64,83 L64,86.0604193 C64,88.2750222 62.2046438,90.0703125 60,90.0703125 C57.790861,90.0703125 56,88.27626 56,86.0604193 L56,83 L48,83 L48,86.0604193 C48,88.2750222 46.2046438,90.0703125 44,90.0703125 C41.790861,90.0703125 40,88.27626 40,86.0604193 L40,83 L32,83 L32,86.0604193 C32,88.2750222 30.2046438,90.0703125 28,90.0703125 C25.790861,90.0703125 24,88.27626 24,86.0604193 L24,83 L16,83 L16,86.0604193 C16,88.2750222 14.2046438,90.0703125 12,90.0703125 C9.790861,90.0703125 8,88.27626 8,86.0604193 L8,83 L7.00483348,83 C4.79711035,83 3,84.790861 3,87 C3,89.2046438 4.79302502,91 7.00483348,91 L113.405323,91 C115.613046,91 117.410156,89.209139 117.410156,87 C117.410156,84.7953562 115.617131,83 113.405323,83 L112,83 L112,86.0604193 C112,88.2750222 110.204644,90.0703125 108,90.0703125 C105.790861,90.0703125 104,88.27626 104,86.0604193 L104,83 Z" id="Rectangle-90"></path>
            <g id="Group">
                <rect id="Rectangle-89" x="0" y="90" width="120" height="6"></rect>
                <rect id="Rectangle-90" x="0" y="33" width="8" height="60" rx="8"></rect>
                <rect id="Rectangle-90" x="80" y="36" width="8" height="60" rx="8"></rect>
                <rect id="Rectangle-90" x="96" y="42" width="8" height="54" rx="8"></rect>
                <rect id="Rectangle-90" x="112" y="77" width="8" height="20" rx="8"></rect>
                <rect id="Rectangle-90" x="16" y="15" width="8" height="81" rx="8"></rect>
                <rect id="Rectangle-90" x="32" y="72" width="8" height="24" rx="8"></rect>
                <rect id="Rectangle-90" x="48" y="56" width="8" height="41" rx="8"></rect>
                <rect id="Rectangle-90" x="64" y="0" width="8" height="96" rx="8"></rect>
            </g>
        </g>
    </g>
</svg>