<?xml version="1.0" encoding="UTF-8" standalone="no"?>
<svg width="51px" height="51px" viewBox="0 0 51 51" version="1.1" xmlns="http://www.w3.org/2000/svg" xmlns:xlink="http://www.w3.org/1999/xlink">
    <!-- Generator: Sketch 3.7.2 (28276) - http://www.bohemiancoding.com/sketch -->
    <title>expression_label</title>
    <desc>Created with Sketch.</desc>
    <defs>
        <circle id="path-1" cx="15.7" cy="12.6" r="2.1"></circle>
        <mask id="mask-2" maskContentUnits="userSpaceOnUse" maskUnits="objectBoundingBox" x="-3.5" y="-3.5" width="11.2" height="11.2">
            <rect x="10.1" y="7" width="11.2" height="11.2" fill="white"></rect>
            <use xlink:href="#path-1" fill="black"></use>
        </mask>
        <path d="M23.6,39.2 C29.2609187,39.2 33.85,34.6109187 33.85,28.95 C33.85,23.2890813 29.2609187,26.6845703 23.6,26.6845703 C17.9390813,26.6845703 13.35,23.2890813 13.35,28.95 C13.35,34.6109187 17.9390813,39.2 23.6,39.2 Z" id="path-3"></path>
        <mask id="mask-4" maskContentUnits="userSpaceOnUse" maskUnits="objectBoundingBox" x="-3.5" y="-3.5" width="27.5" height="20.5253706">
            <rect x="9.85" y="22.1746294" width="27.5" height="20.5253706" fill="white"></rect>
            <use xlink:href="#path-3" fill="black"></use>
        </mask>
        <circle id="path-5" cx="31.6" cy="12.6" r="2.1"></circle>
        <mask id="mask-6" maskContentUnits="userSpaceOnUse" maskUnits="objectBoundingBox" x="-3.5" y="-3.5" width="11.2" height="11.2">
            <rect x="26" y="7" width="11.2" height="11.2" fill="white"></rect>
            <use xlink:href="#path-5" fill="black"></use>
        </mask>
    </defs>
    <g id="Page-1" stroke="none" stroke-width="1" fill="none" fill-rule="evenodd">
        <g id="expression_label" stroke="#979797">
            <g transform="translate(2.000000, 2.000000)">
                <circle id="Oval-4" stroke-width="3.5" cx="23.6" cy="23.6" r="23.5"></circle>
                <use id="Oval-4-Copy-2" mask="url(#mask-2)" stroke-width="7" xlink:href="#path-1"></use>
                <use id="Oval-4-Copy-4" mask="url(#mask-4)" stroke-width="7" xlink:href="#path-3"></use>
                <use id="Oval-4-Copy-3" mask="url(#mask-6)" stroke-width="7" xlink:href="#path-5"></use>
            </g>
        </g>
    </g>
</svg>