<?xml version="1.0" encoding="UTF-8" standalone="no"?>
<svg width="51px" height="51px" viewBox="0 0 51 51" version="1.1" xmlns="http://www.w3.org/2000/svg" xmlns:xlink="http://www.w3.org/1999/xlink">
    <!-- Generator: Sketch 3.7.2 (28276) - http://www.bohemiancoding.com/sketch -->
    <title>file_label</title>
    <desc>Created with Sketch.</desc>
    <defs>
        <path d="M33,0 L13.001412,0 C5.82550067,0 0,5.82093042 0,13.001412 L0,37.998588 C0,45.1744993 5.82093042,51 13.001412,51 L37.998588,51 C45.1744993,51 51,45.1790696 51,37.998588 L51,18 L34.0088498,18 C33.4516774,18 33,17.5450757 33,17.0008579 L33,-4.4408921e-16 Z" id="path-1"></path>
        <mask id="mask-2" maskContentUnits="userSpaceOnUse" maskUnits="objectBoundingBox" x="0" y="0" width="51" height="51" fill="white">
            <use xlink:href="#path-1"></use>
        </mask>
    </defs>
    <g id="Page-1" stroke="none" stroke-width="1" fill="none" fill-rule="evenodd">
        <g id="file_label" stroke="#979797">
            <g>
                <use id="Rectangle-7" mask="url(#mask-2)" stroke-width="7" xlink:href="#path-1"></use>
                <path d="M32.5,1.5 L49.5,18.5" id="Line" stroke-width="3.5" stroke-linecap="square"></path>
                <path d="M9.5,13.75 L24.5,13.75" id="Line" stroke-width="3.5" stroke-linecap="square"></path>
                <path d="M9.5,21 L24.5083313,21" id="Line-Copy" stroke-width="3.5" stroke-linecap="square"></path>
                <path d="M9.5,28.25 L41.5,28.25" id="Line-Copy-3" stroke-width="3.5" stroke-linecap="square"></path>
                <path d="M9.5,35.5 L41.5,35.5" id="Line-Copy-4" stroke-width="3.5" stroke-linecap="square"></path>
            </g>
        </g>
    </g>
</svg>