<?xml version="1.0" encoding="UTF-8" standalone="no"?>
<svg width="51px" height="51px" viewBox="0 0 51 51" version="1.1" xmlns="http://www.w3.org/2000/svg" xmlns:xlink="http://www.w3.org/1999/xlink">
    <!-- Generator: Sketch 3.7.2 (28276) - http://www.bohemiancoding.com/sketch -->
    <title>file_label1</title>
    <desc>Created with Sketch.</desc>
    <defs>
        <path d="M33,1 L13.001412,1 C5.82550067,1 0,6.82093042 0,14.001412 L0,38.998588 C0,46.1744993 5.82093042,52 13.001412,52 L37.998588,52 C45.1744993,52 51,46.1790696 51,38.998588 L51,19 L34.0088498,19 C33.4516774,19 33,18.5450757 33,18.0008579 L33,1 Z" id="path-1"></path>
        <mask id="mask-2" maskContentUnits="userSpaceOnUse" maskUnits="objectBoundingBox" x="0" y="0" width="51" height="51" fill="white">
            <use xlink:href="#path-1"></use>
        </mask>
    </defs>
    <g id="Page-1" stroke="none" stroke-width="1" fill="none" fill-rule="evenodd">
        <g id="file_label1" stroke="#FFB500">
            <g transform="translate(0.000000, -1.000000)">
                <use id="Rectangle-7" mask="url(#mask-2)" stroke-width="7" xlink:href="#path-1"></use>
                <path d="M32.5,2.5 L49.5,19.5" id="Line" stroke-width="3.5" stroke-linecap="square"></path>
                <path d="M9.5,14.75 L24.5,14.75" id="Line" stroke-width="3.5" stroke-linecap="square"></path>
                <path d="M9.5,22 L24.5083313,22" id="Line-Copy" stroke-width="3.5" stroke-linecap="square"></path>
                <path d="M9.5,29.25 L41.5,29.25" id="Line-Copy-3" stroke-width="3.5" stroke-linecap="square"></path>
                <path d="M9.5,36.5 L41.5,36.5" id="Line-Copy-4" stroke-width="3.5" stroke-linecap="square"></path>
            </g>
        </g>
    </g>
</svg>