<?xml version="1.0" encoding="UTF-8" standalone="no"?>
<svg width="128px" height="128px" viewBox="0 0 128 128" version="1.1" xmlns="http://www.w3.org/2000/svg" xmlns:xlink="http://www.w3.org/1999/xlink" style="background: #FFFFFF;">
    <!-- Generator: Sketch 3.7.2 (28276) - http://www.bohemiancoding.com/sketch -->
    <title>messaging_1</title>
    <desc>Created with Sketch.</desc>
    <defs>
        <path d="M64,115 C92.1665222,115 115,92.1665222 115,64 C115,35.8334778 92.1665222,13 64,13 C35.8334778,13 13,35.8334778 13,64 C13,92.1665222 35.8334778,115 64,115 Z" id="path-1"></path>
        <mask id="mask-2" maskContentUnits="userSpaceOnUse" maskUnits="objectBoundingBox" x="-5" y="-5" width="112" height="112">
            <rect x="8" y="8" width="112" height="112" fill="white"></rect>
            <use xlink:href="#path-1" fill="black"></use>
        </mask>
    </defs>
    <g id="Page-1" stroke="none" stroke-width="1" fill="none" fill-rule="evenodd">
        <g id="messaging_1">
            <g id="Oval-53">
                <use fill="#FFFFFF" fill-rule="evenodd" xlink:href="#path-1"></use>
                <use stroke="#C9C9C9" mask="url(#mask-2)" stroke-width="10" xlink:href="#path-1"></use>
            </g>
            <path d="M32.2146368,68.4526792 C30.9661889,66.2696748 30.9680052,62.7271494 32.2146368,60.5473208 L44.7165461,38.6867978 C45.964994,36.5037933 49.0174525,34.7341185 51.5333124,34.7341185 L76.4666876,34.7341185 C78.9830358,34.7341185 82.0368223,36.5069691 83.2834539,38.6867978 L95.7853632,60.5473208 C97.0338111,62.7303252 97.0319948,66.2728506 95.7853632,68.4526792 L83.2834539,90.3132022 C82.035006,92.4962067 78.9825475,94.2658815 76.4666876,94.2658815 L51.5333124,94.2658815 C49.0169642,94.2658815 45.9631777,92.4930309 44.7165461,90.3132022 L32.2146368,68.4526792 Z M45.8907173,70.7234401 C49.3606188,70.7234401 52.1735297,67.937111 52.1735297,64.5 C52.1735297,61.062889 49.3606188,58.2765599 45.8907173,58.2765599 C42.4208159,58.2765599 39.607905,61.062889 39.607905,64.5 C39.607905,67.937111 42.4208159,70.7234401 45.8907173,70.7234401 Z M64,70.7234401 C67.4699015,70.7234401 70.2828124,67.937111 70.2828124,64.5 C70.2828124,61.062889 67.4699015,58.2765599 64,58.2765599 C60.5300985,58.2765599 57.7171876,61.062889 57.7171876,64.5 C57.7171876,67.937111 60.5300985,70.7234401 64,70.7234401 Z M82.1092827,70.7234401 C85.5791841,70.7234401 88.392095,67.937111 88.392095,64.5 C88.392095,61.062889 85.5791841,58.2765599 82.1092827,58.2765599 C78.6393812,58.2765599 75.8264703,61.062889 75.8264703,64.5 C75.8264703,67.937111 78.6393812,70.7234401 82.1092827,70.7234401 Z" id="Polygon-1-Copy-2" fill="#F8B000"></path>
        </g>
    </g>
</svg>