<?xml version="1.0" encoding="UTF-8" standalone="no"?>
<svg width="102px" height="102px" viewBox="0 0 102 102" version="1.1" xmlns="http://www.w3.org/2000/svg" xmlns:xlink="http://www.w3.org/1999/xlink" style="background: #FFFFFF;">
    <!-- Generator: Sketch 3.7.2 (28276) - http://www.bohemiancoding.com/sketch -->
    <title>messaging</title>
    <desc>Created with Sketch.</desc>
    <defs></defs>
    <g id="Page-1" stroke="none" stroke-width="1" fill="none" fill-rule="evenodd">
        <g id="messaging">
            <path d="M51,102 C79.1665222,102 102,79.1665222 102,51 C102,22.8334778 79.1665222,0 51,0 C22.8334778,0 0,22.8334778 0,51 C0,79.1665222 22.8334778,102 51,102 Z" id="Oval-53" fill="#F8B000"></path>
            <path d="M19.2146368,55.4526792 C17.9661889,53.2696748 17.9680052,49.7271494 19.2146368,47.5473208 L31.7165461,25.6867978 C32.964994,23.5037933 36.0174525,21.7341185 38.5333124,21.7341185 L63.4666876,21.7341185 C65.9830358,21.7341185 69.0368223,23.5069691 70.2834539,25.6867978 L82.7853632,47.5473208 C84.0338111,49.7303252 84.0319948,53.2728506 82.7853632,55.4526792 L70.2834539,77.3132022 C69.035006,79.4962067 65.9825475,81.2658815 63.4666876,81.2658815 L38.5333124,81.2658815 C36.0169642,81.2658815 32.9631777,79.4930309 31.7165461,77.3132022 L19.2146368,55.4526792 Z M32.8907173,57.7234401 C36.3606188,57.7234401 39.1735297,54.937111 39.1735297,51.5 C39.1735297,48.062889 36.3606188,45.2765599 32.8907173,45.2765599 C29.4208159,45.2765599 26.607905,48.062889 26.607905,51.5 C26.607905,54.937111 29.4208159,57.7234401 32.8907173,57.7234401 Z M51,57.7234401 C54.4699015,57.7234401 57.2828124,54.937111 57.2828124,51.5 C57.2828124,48.062889 54.4699015,45.2765599 51,45.2765599 C47.5300985,45.2765599 44.7171876,48.062889 44.7171876,51.5 C44.7171876,54.937111 47.5300985,57.7234401 51,57.7234401 Z M69.1092827,57.7234401 C72.5791841,57.7234401 75.392095,54.937111 75.392095,51.5 C75.392095,48.062889 72.5791841,45.2765599 69.1092827,45.2765599 C65.6393812,45.2765599 62.8264703,48.062889 62.8264703,51.5 C62.8264703,54.937111 65.6393812,57.7234401 69.1092827,57.7234401 Z" id="Polygon-1-Copy-2" fill="#FFFFFF"></path>
        </g>
    </g>
</svg>