<?xml version="1.0" encoding="UTF-8" standalone="no"?>
<svg width="102px" height="102px" viewBox="0 0 102 102" version="1.1" xmlns="http://www.w3.org/2000/svg" xmlns:xlink="http://www.w3.org/1999/xlink" style="background: #FFFFFF;">
    <!-- Generator: Sketch 3.7.2 (28276) - http://www.bohemiancoding.com/sketch -->
    <title>profile</title>
    <desc>Created with Sketch.</desc>
    <defs>
        <path d="M4.73311131,22.0167441 L4.75874006,22.0717051 C9.39954185,25.0063633 15.1325869,26.0076268 20.6125871,24.5789979 C17.2728112,22.5549649 14.4704761,19.5452305 12.6908949,15.7289063 C12.6345128,15.6079945 12.5794109,15.4868167 12.5255835,15.3653884 C12.4853658,15.2636113 12.441848,15.1624104 12.3949845,15.0619112 C11.1301526,12.3494705 7.90710127,11.1754084 5.19609776,12.4395701 C2.48509426,13.7037318 1.31274051,16.927405 2.57757238,19.6398457 C3.05836302,20.6709045 3.82210244,21.4796787 4.73311131,22.0167441 Z" id="path-1"></path>
        <mask id="mask-2" maskContentUnits="userSpaceOnUse" maskUnits="objectBoundingBox" x="0" y="0" width="18.5372461" height="13.2935134" fill="white">
            <use xlink:href="#path-1"></use>
        </mask>
        <path d="M61.0243098,22.0167441 L61.0499386,22.0717051 C65.6907404,25.0063633 71.4237854,26.0076268 76.9037856,24.5789979 C73.5640097,22.5549649 70.7616746,19.5452305 68.9820934,15.7289063 C68.9257113,15.6079945 68.8706094,15.4868167 68.816782,15.3653884 C68.7765643,15.2636113 68.7330465,15.1624104 68.686183,15.0619112 C67.4213511,12.3494705 64.1982998,11.1754084 61.4872963,12.4395701 C58.7762928,13.7037318 57.603939,16.927405 58.8687709,19.6398457 C59.3495615,20.6709045 60.1133009,21.4796787 61.0243098,22.0167441 Z" id="path-3"></path>
        <mask id="mask-4" maskContentUnits="userSpaceOnUse" maskUnits="objectBoundingBox" x="0" y="0" width="18.5372461" height="13.2935134" fill="white">
            <use xlink:href="#path-3"></use>
        </mask>
    </defs>
    <g id="Page-1" stroke="none" stroke-width="1" fill="none" fill-rule="evenodd">
        <g id="profile">
            <path d="M51,102 C79.1665222,102 102,79.1665222 102,51 C102,22.8334778 79.1665222,0 51,0 C22.8334778,0 0,22.8334778 0,51 C0,79.1665222 22.8334778,102 51,102 Z" id="Oval-53" fill="#F8B000"></path>
            <g id="Main-Icon" transform="translate(12.000000, 16.000000)">
                <path d="M31.8628662,62.9035104 C36.2467626,63.9960534 39.3668446,66.8059476 39.3668446,70.0999778 C39.3668446,70.1367636 39.3664555,70.1734891 39.3656798,70.2101524 C39.3664271,70.2087793 39.3671751,70.2074063 39.3679238,70.2060335 C39.3672051,70.1707386 39.3668446,70.1353862 39.3668446,70.0999778 C39.3668446,66.8823496 42.3438702,64.1266597 46.5678444,62.9822883 C46.5642028,62.9639537 46.5606909,62.9455805 46.5573096,62.9271695 C44.2866138,63.6371895 41.8713894,64.0198182 39.3668446,64.0198182 C36.7633178,64.0198182 34.2563109,63.6063481 31.90784,62.8414569 C31.8938469,62.8622939 31.8788488,62.8829809 31.8628662,62.9035104 Z" id="Spine-Copy" fill="#FFFFFF"></path>
                <use id="Left-Wing-Copy" stroke="#FFFFFF" mask="url(#mask-2)" stroke-width="1.05" fill="#FFFFFF" transform="translate(11.337451, 18.577313) rotate(-29.000000) translate(-11.337451, -18.577313) " xlink:href="#path-1"></use>
                <use id="Left-Wing-Copy-2" stroke="#FFFFFF" mask="url(#mask-4)" stroke-width="1.05" fill="#FFFFFF" transform="translate(67.628650, 18.577313) scale(-1, 1) rotate(-29.000000) translate(-67.628650, -18.577313) " xlink:href="#path-3"></use>
                <g id="Body-Copy" transform="translate(15.299817, 0.696975)" fill="#FFFFFF">
                    <ellipse id="Oval-1" cx="24.076093" cy="40.0888565" rx="24.076093" ry="24.0888565"></ellipse>
                    <ellipse id="l-w" cx="17.3893124" cy="8.1346026" rx="7.93322052" ry="7.93742615"></ellipse>
                    <ellipse id="r-w-copy-2" cx="30.8719245" cy="8.1346026" rx="7.90825794" ry="7.91245034"></ellipse>
                </g>
                <g id="Eye-Ball-Copy" transform="translate(25.577415, 1.717328)"></g>
            </g>
        </g>
    </g>
</svg>