<?xml version="1.0" encoding="UTF-8" standalone="no"?>
<svg width="102px" height="102px" viewBox="0 0 102 102" version="1.1" xmlns="http://www.w3.org/2000/svg" xmlns:xlink="http://www.w3.org/1999/xlink" style="background: #FFFFFF;">
    <!-- Generator: Sketch 3.7.2 (28276) - http://www.bohemiancoding.com/sketch -->
    <title>question</title>
    <desc>Created with Sketch.</desc>
    <defs></defs>
    <g id="Page-1" stroke="none" stroke-width="1" fill="none" fill-rule="evenodd">
        <g id="question">
            <path d="M51,102 C79.1665222,102 102,79.1665222 102,51 C102,22.8334778 79.1665222,0 51,0 C22.8334778,0 0,22.8334778 0,51 C0,79.1665222 22.8334778,102 51,102 Z" id="Oval-53" fill="#F8B000"></path>
            <g id="Group" transform="translate(25.000000, 17.000000)" fill="#FFFFFF">
                <path d="M10.7373047,35.1542969 C18.3798828,33.5917969 22.7636719,16.4433594 29.9091797,25.0595703 C37.0546875,33.6757812 22.6158414,31.8668444 19.9962785,38.0495408 C17.3767156,44.2322371 23.2581378,49.0820312 26.8671875,49.0820312 C40.6743062,49.0820312 51.8671875,37.7651266 51.8671875,23.9580078 C51.8671875,10.1508891 40.6743062,0 26.8671875,0 C13.0600688,0 0,10.1508891 0,23.9580078 C0,27.1438598 3.09472656,36.7167969 10.7373047,35.1542969 Z" id="Oval-180"></path>
                <circle id="Oval-181" cx="25.5" cy="60.5" r="7.5"></circle>
            </g>
        </g>
    </g>
</svg>