<?xml version="1.0" encoding="UTF-8" standalone="no"?>
<svg width="128px" height="128px" viewBox="0 0 128 128" version="1.1" xmlns="http://www.w3.org/2000/svg" xmlns:xlink="http://www.w3.org/1999/xlink" style="background: #FFFFFF;">
    <!-- Generator: Sketch 3.7.2 (28276) - http://www.bohemiancoding.com/sketch -->
    <title>question_0</title>
    <desc>Created with Sketch.</desc>
    <defs></defs>
    <g id="Page-1" stroke="none" stroke-width="1" fill="none" fill-rule="evenodd">
        <g id="question_0">
            <path d="M64,115 C92.1665222,115 115,92.1665222 115,64 C115,35.8334778 92.1665222,13 64,13 C35.8334778,13 13,35.8334778 13,64 C13,92.1665222 35.8334778,115 64,115 Z" id="Oval-53" fill="#F8B000"></path>
            <g id="Group" transform="translate(38.000000, 30.000000)" fill="#FFFFFF">
                <path d="M10.7373047,35.1542969 C18.3798828,33.5917969 22.7636719,16.4433594 29.9091797,25.0595703 C37.0546875,33.6757812 22.6158414,31.8668444 19.9962785,38.0495408 C17.3767156,44.2322371 23.2581378,49.0820312 26.8671875,49.0820312 C40.6743062,49.0820312 51.8671875,37.7651266 51.8671875,23.9580078 C51.8671875,10.1508891 40.6743062,0 26.8671875,0 C13.0600688,0 0,10.1508891 0,23.9580078 C0,27.1438598 3.09472656,36.7167969 10.7373047,35.1542969 Z" id="Oval-180"></path>
                <circle id="Oval-181" cx="25.5" cy="60.5" r="7.5"></circle>
            </g>
        </g>
    </g>
</svg>