<?xml version="1.0" encoding="UTF-8" standalone="no"?>
<svg width="149px" height="226px" viewBox="0 0 149 226" version="1.1" xmlns="http://www.w3.org/2000/svg" xmlns:xlink="http://www.w3.org/1999/xlink">
    <!-- Generator: Sketch 3.7.2 (28276) - http://www.bohemiancoding.com/sketch -->
    <title>send_btn_1</title>
    <desc>Created with Sketch.</desc>
    <defs></defs>
    <g id="Page-1" stroke="none" stroke-width="1" fill="none" fill-rule="evenodd">
        <g id="send_btn_1">
            <g id="send" transform="translate(61.500000, 10.500000)" fill="#FFB500">
                <path d="M13.5289298,66.2678013 L20.5175304,66.2678013 C20.7166584,71.7054062 24.3890344,76.2563304 29.381886,77.7678013 L3.85789161,77.7678013 L3.85789161,73.0008801 C8.07110786,72.694455 11.6775745,70.0436562 13.5289298,66.2678013 Z" id="Rectangle-34" transform="translate(16.619889, 72.017801) rotate(-10.000000) translate(-16.619889, -72.017801) "></path>
                <path d="M8.27504541,0.43984716 L13.2713261,1.11753521 L14.1234737,66.9535682 C14.1234737,66.9535682 3.60081554,76.5947042 7.15371134,66.8308886 C10.7066071,57.0670731 8.27504541,0.43984716 8.27504541,0.43984716 Z" id="Rectangle-33-Copy" transform="translate(10.272245, 35.821123) rotate(-10.000000) translate(-10.272245, -35.821123) "></path>
            </g>
            <g id="Oval-29-Copy-2-+-Send" transform="translate(12.500000, 84.500000)">
                <circle id="Oval-29-Copy-2" fill="#FFB500" cx="65.75" cy="65.75" r="65.75"></circle>
                <text id="Send" font-family="Verdana" font-size="24" font-weight="normal" fill="#FFFFFF">
                    <tspan x="33.99646" y="73">Send</tspan>
                </text>
            </g>
            <path d="M68.874054,12.5 L63.807251,12.5 C62.2117755,5.79686787 57.9035594,0 51,0 L81.5,0 C74.5964406,0 68.1301575,5.60961914 68.874054,12.5 Z" id="Rectangle-33" fill="#FFB500"></path>
        </g>
    </g>
</svg>