<?xml version="1.0" encoding="UTF-8" standalone="no"?>
<svg width="149px" height="226px" viewBox="0 0 149 226" version="1.1" xmlns="http://www.w3.org/2000/svg" xmlns:xlink="http://www.w3.org/1999/xlink">
    <!-- Generator: Sketch 3.7.2 (28276) - http://www.bohemiancoding.com/sketch -->
    <title>send_btn_0</title>
    <desc>Created with Sketch.</desc>
    <defs>
        <circle id="path-1" cx="70.5" cy="149.5" r="58.5"></circle>
        <filter x="-50%" y="-50%" width="200%" height="200%" filterUnits="objectBoundingBox" id="filter-2">
            <feOffset dx="5" dy="5" in="SourceAlpha" result="shadowOffsetOuter1"></feOffset>
            <feGaussianBlur stdDeviation="7.5" in="shadowOffsetOuter1" result="shadowBlurOuter1"></feGaussianBlur>
            <feColorMatrix values="0 0 0 0 0   0 0 0 0 0   0 0 0 0 0  0 0 0 0.5 0" type="matrix" in="shadowBlurOuter1"></feColorMatrix>
        </filter>
    </defs>
    <g id="Page-1" stroke="none" stroke-width="1" fill="none" fill-rule="evenodd">
        <g id="send_btn_0">
            <g id="send" transform="translate(51.000000, 0.000000)" fill="#FFB500">
                <path d="M12.4605826,69 L18.0394174,69 C18.496045,74.7688289 22.8691522,79.435362 28.5,80.3408605 L28.5,80.5 L1.5,80.5 L1.5,80.410925 C7.37023712,79.708891 11.9905257,74.9384882 12.4605826,69 Z" id="Rectangle-34"></path>
                <path d="M18,12.5 L12.5,12.5 C12.5,5.59644063 6.90355937,0 0,0 L30.5,0 C23.5964406,0 18,5.59644063 18,12.5 Z" id="Rectangle-33"></path>
                <rect id="Rectangle-33-Copy" x="12.5" y="10" width="5.5" height="59"></rect>
            </g>
            <text id="Send" font-family="Verdana" font-size="24" font-weight="normal" fill="#FFFFFF">
                <tspan x="33.99646" y="152.5">Send</tspan>
            </text>
            <g id="Oval-29-Copy-5">
                <use fill="black" fill-opacity="1" filter="url(#filter-2)" xlink:href="#path-1"></use>
                <use fill="#FFB500" fill-rule="evenodd" xlink:href="#path-1"></use>
            </g>
            <circle id="Oval-29-Copy-2" fill="#FFB500" cx="65.75" cy="144.75" r="65.75"></circle>
        </g>
    </g>
</svg>