<?xml version="1.0" encoding="UTF-8" standalone="no"?>
<svg width="102px" height="102px" viewBox="0 0 102 102" version="1.1" xmlns="http://www.w3.org/2000/svg" xmlns:xlink="http://www.w3.org/1999/xlink" style="background: #FFFFFF;">
    <!-- Generator: Sketch 3.7.2 (28276) - http://www.bohemiancoding.com/sketch -->
    <title>settings_tab</title>
    <desc>Created with Sketch.</desc>
    <defs></defs>
    <g id="Page-1" stroke="none" stroke-width="1" fill="none" fill-rule="evenodd">
        <g id="settings_tab" fill="#FFB500">
            <g id="Oval-53-Copy-+-Polygon-16-+-Rectangle-49" transform="translate(12.000000, 19.000000)">
                <path d="M18.7095199,0.976758117 C20.9893779,0.340441407 23.3946744,0 25.8803555,0 C40.4336008,0 52.231337,11.6700105 52.231337,26.0656979 C52.231337,40.4613854 40.4336008,52.1313958 25.8803555,52.1313958 C13.3051009,52.1313958 2.78723189,43.4180465 0.160477472,31.761919 C0.533443491,32.378644 1.03567467,32.914354 1.58810696,33.2298479 L15.9808922,41.4495633 C17.1318525,42.1068763 18.9981118,42.1069164 20.1491422,41.4495633 L34.5419275,33.2298479 C35.6928877,32.5725349 36.6260525,30.9692317 36.6260525,29.6488598 L36.6260525,13.2299463 C36.6260525,11.9196788 35.6929579,10.3063113 34.5419275,9.64895814 L20.1491422,1.42924274 C19.7386282,1.19479831 19.237118,1.04396828 18.7095199,0.976758117 Z" id="Oval-53-Copy"></path>
                <path d="M15.9257366,7.61654035 C17.0713206,6.95178883 18.9349279,6.95541472 20.0742634,7.61654035 L28.9257366,12.7528115 C30.0713206,13.417563 31,15.0293828 31,16.3470463 L31,26.6529537 C31,27.9732432 30.0650721,29.5860628 28.9257366,30.2471885 L20.0742634,35.3834596 C18.9286794,36.0482112 17.0650721,36.0445853 15.9257366,35.3834596 L7.0742634,30.2471885 C5.92867936,29.582437 5,27.9706172 5,26.6529537 L5,16.3470463 C5,15.0267568 5.93492794,13.4139372 7.0742634,12.7528115 L15.9257366,7.61654035 Z" id="Polygon-16"></path>
                <rect id="Rectangle-49" transform="translate(59.500000, 46.000000) rotate(-60.000000) translate(-59.500000, -46.000000) " x="50" y="28" width="19" height="36" rx="3"></rect>
            </g>
        </g>
    </g>
</svg>