<?xml version="1.0" encoding="UTF-8" standalone="no"?>
<svg width="128px" height="128px" viewBox="0 0 128 128" version="1.1" xmlns="http://www.w3.org/2000/svg" xmlns:xlink="http://www.w3.org/1999/xlink" style="background: #FFFFFF;">
    <!-- Generator: Sketch 3.7.2 (28276) - http://www.bohemiancoding.com/sketch -->
    <title>settings_1</title>
    <desc>Created with Sketch.</desc>
    <defs>
        <path d="M64,115 C92.1665222,115 115,92.1665222 115,64 C115,35.8334778 92.1665222,13 64,13 C35.8334778,13 13,35.8334778 13,64 C13,92.1665222 35.8334778,115 64,115 Z" id="path-1"></path>
        <mask id="mask-2" maskContentUnits="userSpaceOnUse" maskUnits="objectBoundingBox" x="-5" y="-5" width="112" height="112">
            <rect x="8" y="8" width="112" height="112" fill="white"></rect>
            <use xlink:href="#path-1" fill="black"></use>
        </mask>
    </defs>
    <g id="Page-1" stroke="none" stroke-width="1" fill="none" fill-rule="evenodd">
        <g id="settings_1">
            <g id="Oval-53">
                <use fill="#FFFFFF" fill-rule="evenodd" xlink:href="#path-1"></use>
                <use stroke="#C9C9C9" mask="url(#mask-2)" stroke-width="10" xlink:href="#path-1"></use>
            </g>
            <g id="Oval-53-Copy-+-Polygon-16-+-Rectangle-49" transform="translate(25.000000, 33.000000)" fill="#F8B000">
                <path d="M20.1407817,0.424486721 C21.6518487,0.145744434 23.2102147,0 24.8029938,0 C38.7612285,0 50.0766135,11.1928813 50.0766135,25 C50.0766135,38.8071187 38.7612285,50 24.8029938,50 C12.8906371,50 2.90317461,41.8477728 0.231337044,30.8756874 C0.595927041,31.4442399 1.06993308,31.9339189 1.58810696,32.2298479 L15.9808922,40.4495633 C17.1318525,41.1068763 18.9981118,41.1069164 20.1491422,40.4495633 L34.5419275,32.2298479 C35.6928877,31.5725349 36.6260525,29.9692317 36.6260525,28.6488598 L36.6260525,12.2299463 C36.6260525,10.9196788 35.6929579,9.30631128 34.5419275,8.64895814 L20.1491422,0.42924274 C20.1463595,0.427653559 20.1435727,0.426068219 20.1407817,0.424486721 Z" id="Oval-53-Copy"></path>
                <path d="M15.9257366,6.61654035 C17.0713206,5.95178883 18.9349279,5.95541472 20.0742634,6.61654035 L28.9257366,11.7528115 C30.0713206,12.417563 31,14.0293828 31,15.3470463 L31,25.6529537 C31,26.9732432 30.0650721,28.5860628 28.9257366,29.2471885 L20.0742634,34.3834596 C18.9286794,35.0482112 17.0650721,35.0445853 15.9257366,34.3834596 L7.0742634,29.2471885 C5.92867936,28.582437 5,26.9706172 5,25.6529537 L5,15.3470463 C5,14.0267568 5.93492794,12.4139372 7.0742634,11.7528115 L15.9257366,6.61654035 Z" id="Polygon-16"></path>
                <rect id="Rectangle-49" transform="translate(58.000000, 44.000000) rotate(-60.000000) translate(-58.000000, -44.000000) " x="48" y="26" width="20" height="36" rx="2.4"></rect>
            </g>
        </g>
    </g>
</svg>