<?xml version="1.0" encoding="UTF-8" standalone="no"?>
<svg width="109px" height="65px" viewBox="0 0 109 65" version="1.1" xmlns="http://www.w3.org/2000/svg" xmlns:xlink="http://www.w3.org/1999/xlink">
    <!-- Generator: Sketch 3.7.2 (28276) - http://www.bohemiancoding.com/sketch -->
    <title>slot</title>
    <desc>Created with Sketch.</desc>
    <defs></defs>
    <g id="Page-1" stroke="none" stroke-width="1" fill="none" fill-rule="evenodd">
        <g id="switch" transform="translate(-23.000000, -4.000000)">
            <g id="slot" transform="translate(23.000000, 9.000000)">
                <path d="M84.3295181,0.25716245 C84.0304919,0.211291293 83.7241888,0.1875 83.4123266,0.1875 L20.9617742,0.1875 C20.6605703,0.1875 20.3644407,0.20982785 20.0749631,0.252923569 C16.7752981,0.268194245 12.7652849,2.58740777 11.1152881,5.44610001 L1.41963452,22.2442477 C-0.233282897,25.1080001 -0.235823478,29.7625982 1.41963452,32.6307523 L11.1152881,49.4289 C12.7623655,52.2825343 16.7683501,54.6056846 20.072583,54.6220651 C20.362721,54.6651696 20.6596386,54.6875 20.9617742,54.6875 L83.4123266,54.6875 C83.7230328,54.6875 84.0283395,54.6637411 84.3265149,54.6179357 C87.5838687,54.5071279 91.4584175,52.2263129 93.0730447,49.4289 L102.768698,32.6307523 C104.421616,29.7669999 104.424156,25.1124018 102.768698,22.2442477 L93.0730447,5.44610001 C91.4613304,2.65373399 87.5909143,0.369317178 84.3295181,0.25716245 Z" fill="#979797"></path>
                <text id="On" font-family="Verdana-Bold, Verdana" font-size="16" font-weight="bold" fill="#FFFFFF">
                    <tspan x="11.9426376" y="32.8242188">On</tspan>
                </text>
                <text id="Off" font-family="Verdana-Bold, Verdana" font-size="16" font-weight="bold" fill="#FFFFFF">
                    <tspan x="65.3429257" y="32.8242188">Off</tspan>
                </text>
            </g>
        </g>
    </g>
</svg>