<?xml version="1.0" encoding="UTF-8" standalone="no"?>
<svg width="129px" height="129px" viewBox="0 0 129 129" version="1.1" xmlns="http://www.w3.org/2000/svg" xmlns:xlink="http://www.w3.org/1999/xlink">
    <!-- Generator: Sketch 3.7.2 (28276) - http://www.bohemiancoding.com/sketch -->
    <title>storage_0</title>
    <desc>Created with Sketch.</desc>
    <defs></defs>
    <g id="Page-1" stroke="none" stroke-width="1" fill="none" fill-rule="evenodd">
        <g id="storage_0">
            <path d="M64,115 C92.1665222,115 115,92.1665222 115,64 C115,35.8334778 92.1665222,13 64,13 C35.8334778,13 13,35.8334778 13,64 C13,92.1665222 35.8334778,115 64,115 Z" id="Oval-53" fill="#F8B000"></path>
            <g id="contact_tab" transform="translate(36.000000, 33.000000)" fill="#FFFFFF">
                <path d="M0,28.8878727 C0,16.7609512 9.82694307,6.93013891 21.9462429,6.93013891 L34.1933798,6.93013891 C46.313955,6.93013891 56.1396226,16.7630229 56.1396226,28.8878727 L56.1396226,41.6083679 C56.1396226,53.7352894 46.3126796,63.5661017 34.1933798,63.5661017 L21.9462429,63.5661017 C9.82566762,63.5661017 0,53.7332177 0,41.6083679 L0,28.8878727 Z M27.9513733,43.0146553 C32.2685332,43.0146553 35.7682828,39.4839638 35.7682828,35.1286351 C35.7682828,30.7733065 28.7151241,22.7178842 28.7151241,22.7178842 C28.2933162,22.2168646 27.6054043,22.2162956 27.1876225,22.7178842 C27.1876225,22.7178842 20.1344638,30.7733065 20.1344638,35.1286351 C20.1344638,39.4839638 23.6342134,43.0146553 27.9513733,43.0146553 Z" id="Rectangle-24"></path>
                <rect id="Rectangle-24-Copy" x="4.26376881" y="0" width="47.8489611" height="10.0367529" rx="21.9552542"></rect>
            </g>
        </g>
    </g>
</svg>