<?xml version="1.0" encoding="UTF-8" standalone="no"?>
<svg width="129px" height="129px" viewBox="0 0 129 129" version="1.1" xmlns="http://www.w3.org/2000/svg" xmlns:xlink="http://www.w3.org/1999/xlink">
    <!-- Generator: Sketch 3.7.2 (28276) - http://www.bohemiancoding.com/sketch -->
    <title>storage_1</title>
    <desc>Created with Sketch.</desc>
    <defs>
        <path d="M64,115 C92.1665222,115 115,92.1665222 115,64 C115,35.8334778 92.1665222,13 64,13 C35.8334778,13 13,35.8334778 13,64 C13,92.1665222 35.8334778,115 64,115 Z" id="path-1"></path>
        <mask id="mask-2" maskContentUnits="userSpaceOnUse" maskUnits="objectBoundingBox" x="-5" y="-5" width="112" height="112">
            <rect x="8" y="8" width="112" height="112" fill="white"></rect>
            <use xlink:href="#path-1" fill="black"></use>
        </mask>
    </defs>
    <g id="Page-1" stroke="none" stroke-width="1" fill="none" fill-rule="evenodd">
        <g id="storage_1">
            <g id="Oval-53">
                <use fill="#FFFFFF" fill-rule="evenodd" xlink:href="#path-1"></use>
                <use stroke="#C9C9C9" mask="url(#mask-2)" stroke-width="10" xlink:href="#path-1"></use>
            </g>
            <g id="contact_tab" transform="translate(36.000000, 33.000000)" fill="#F8B000">
                <path d="M9.52511343e-14,28.9031816 C9.52511343e-14,16.7698335 9.83814943,6.93381148 21.9739231,6.93381148 L34.5993389,6.93381148 C46.7352016,6.93381148 56.573262,16.7719063 56.573262,28.9031816 L56.573262,41.6304179 C56.573262,53.763766 46.7351126,63.599788 34.5993389,63.599788 L21.9739231,63.599788 C9.83806048,63.599788 9.52511343e-14,53.7616932 9.52511343e-14,41.6304179 L9.52511343e-14,28.9031816 Z M28.1672781,43.0374505 C32.5177851,43.0374505 36.0445678,39.504888 36.0445678,35.1472513 C36.0445678,30.7896145 28.9369284,22.7299234 28.9369284,22.7299234 C28.5118623,22.2286382 27.8186367,22.2280689 27.3976279,22.7299234 C27.3976279,22.7299234 20.2899885,30.7896145 20.2899885,35.1472513 C20.2899885,39.504888 23.8167712,43.0374505 28.1672781,43.0374505 Z" id="Rectangle-24"></path>
                <rect id="Rectangle-24-Copy" x="4.29670345" y="-8.60332826e-14" width="48.2185609" height="10.0420718" rx="21.9668892"></rect>
            </g>
        </g>
    </g>
</svg>