<?xml version="1.0" encoding="UTF-8" standalone="no"?>
<svg width="128px" height="128px" viewBox="0 0 128 128" version="1.1" xmlns="http://www.w3.org/2000/svg" xmlns:xlink="http://www.w3.org/1999/xlink" style="background: #FFFFFF;">
    <!-- Generator: Sketch 3.7.2 (28276) - http://www.bohemiancoding.com/sketch -->
    <title>style_0</title>
    <desc>Created with Sketch.</desc>
    <defs></defs>
    <g id="Page-1" stroke="none" stroke-width="1" fill="none" fill-rule="evenodd">
        <g id="style_0">
            <path d="M64,115 C92.1665222,115 115,92.1665222 115,64 C115,35.8334778 92.1665222,13 64,13 C35.8334778,13 13,35.8334778 13,64 C13,92.1665222 35.8334778,115 64,115 Z" id="Oval-53" fill="#F8B000"></path>
            <g id="Group" transform="translate(30.000000, 37.000000)" fill="#FFFFFF">
                <path d="M38.5176318,-2.68442553 C38.5176318,-4.34129785 39.8685998,-5.68445824 41.5083871,-5.68445824 L46.3668135,-5.68445824 C48.0185621,-5.68445824 49.3575689,-4.34203823 49.3575689,-2.67866547 L49.357569,45.0738012 C49.357569,46.7338547 48.034554,47.8399932 46.4026368,47.5568866 C46.4026368,47.5568866 44.6723521,47.2111653 43.9376004,47.2111653 C43.0528766,47.2111653 41.5127352,47.3704805 41.5127352,47.3704805 C39.8585853,47.5152288 38.5176318,46.2879481 38.5176318,44.6325378 L38.5176318,-2.68442553 Z" id="Rectangle-76" transform="translate(43.937600, 20.954336) rotate(54.000000) translate(-43.937600, -20.954336) "></path>
                <path d="M0.670488067,52.6865111 C-0.250479028,53.385773 -0.0675992053,53.8221368 1.07289853,53.6446767 C1.07289853,53.6446767 16.5286485,51.7355559 20.9866916,46.3274146 C23.3936365,43.4075015 23.9132856,41.7888228 21.0452514,37.5924684 C18.1772171,33.3961139 16.9467311,34.0347793 14.4326542,34.0347793 C8.9683312,34.0347793 7.61971819,39.1834059 6.44921898,44.5015011 C5.27871976,49.8195963 0.670488067,52.6865111 0.670488067,52.6865111 Z" id="Oval-153"></path>
            </g>
        </g>
    </g>
</svg>